<svg width="810" height="75.201" viewBox="0 0 810 75.201" xmlns="http://www.w3.org/2000/svg">
  <g id="svgGroup" stroke-linecap="round" fill-rule="evenodd" font-size="9pt" stroke="#f05011" stroke-width="0.25mm" fill="#f05011" style="stroke:#f05011;stroke-width:0.25mm;fill:#f05011">
    <path d="M 0 69.4 L 4.6 62.1 A 16.858 16.858 0 0 0 8.67 65.216 A 19.43 19.43 0 0 0 9.4 65.6 A 13.114 13.114 0 0 0 13.275 66.86 A 11.941 11.941 0 0 0 15.1 67 A 10.741 10.741 0 0 0 18.607 66.452 A 8.936 8.936 0 0 0 22.7 63.55 Q 25.5 60.1 25.5 51.9 L 25.5 4 L 35 4 L 35 50.9 A 47.346 47.346 0 0 1 34.573 57.498 Q 33.481 65.231 29.6 69.4 A 17.93 17.93 0 0 1 17.808 75.085 A 24.68 24.68 0 0 1 15.4 75.2 A 23.443 23.443 0 0 1 7.322 73.817 A 22.405 22.405 0 0 1 6.75 73.6 A 22.827 22.827 0 0 1 2.828 71.618 A 18.183 18.183 0 0 1 0 69.4 Z" id="0" vector-effect="non-scaling-stroke"/>
    <path d="M 46 68.1 L 50.8 60.1 Q 54.4 63.1 58.9 65 A 23.348 23.348 0 0 0 64.27 66.51 A 32.118 32.118 0 0 0 69.4 66.9 A 27.981 27.981 0 0 0 73.947 66.554 Q 76.37 66.154 78.331 65.293 A 13.701 13.701 0 0 0 80.8 63.9 Q 84.848 61.008 84.995 56.166 A 12.116 12.116 0 0 0 85 55.8 A 11.94 11.94 0 0 0 84.663 52.907 A 9.816 9.816 0 0 0 83.8 50.65 A 8.097 8.097 0 0 0 82.6 48.994 Q 81.33 47.613 79.184 46.271 A 25.81 25.81 0 0 0 79.15 46.25 Q 76.034 44.308 70.265 42.08 A 118.584 118.584 0 0 0 69 41.6 Q 61.8 38.8 57.5 35.95 A 21.931 21.931 0 0 1 54.411 33.502 Q 52.694 31.853 51.638 29.987 A 13.303 13.303 0 0 1 51.35 29.45 Q 49.5 25.8 49.5 20.8 Q 49.5 15.8 52.25 11.75 Q 55 7.7 60.35 5.25 A 25.558 25.558 0 0 1 66.25 3.415 Q 69.493 2.8 73.3 2.8 Q 79.5 2.8 84.45 4.05 Q 89.4 5.3 94.1 7.6 L 90.6 15.7 A 31.496 31.496 0 0 0 86.474 13.681 A 41.686 41.686 0 0 0 82.65 12.35 Q 78.1 11 73.1 11 A 27.187 27.187 0 0 0 69.07 11.28 Q 66.938 11.6 65.2 12.287 A 12.616 12.616 0 0 0 62.7 13.6 A 9.902 9.902 0 0 0 60.537 15.565 A 7.359 7.359 0 0 0 58.9 20.3 A 10.464 10.464 0 0 0 59.192 22.822 A 8.562 8.562 0 0 0 60 24.9 Q 61.056 26.819 64.091 28.647 A 23.503 23.503 0 0 0 64.35 28.8 A 33.003 33.003 0 0 0 66.566 29.972 Q 68.835 31.075 72.046 32.323 A 130.016 130.016 0 0 0 74.1 33.1 A 81.228 81.228 0 0 1 79.078 35.129 Q 83.464 37.1 86.45 39.2 A 26.044 26.044 0 0 1 89.49 41.677 Q 91.713 43.806 92.9 46.15 A 17.579 17.579 0 0 1 94.641 52.013 A 22.155 22.155 0 0 1 94.8 54.7 A 21.71 21.71 0 0 1 94.133 60.201 A 17.105 17.105 0 0 1 91.55 65.8 Q 88.3 70.4 82.55 72.8 A 30.521 30.521 0 0 1 75.14 74.804 A 40.027 40.027 0 0 1 69.4 75.2 Q 62.1 75.2 56.1 73.25 A 38.206 38.206 0 0 1 50.733 71.068 A 28.433 28.433 0 0 1 46 68.1 Z" id="1" vector-effect="non-scaling-stroke"/>
    <path d="M 130.208 74.442 A 36.51 36.51 0 0 0 137.8 75.2 A 38.35 38.35 0 0 0 142.962 74.863 A 30.074 30.074 0 0 0 151.7 72.35 Q 157.8 69.5 162.1 64.55 Q 166.4 59.6 168.65 53 Q 170.9 46.4 170.9 38.9 A 48.215 48.215 0 0 0 170.821 36.123 A 41.439 41.439 0 0 0 168.65 24.9 Q 166.4 18.4 162.1 13.4 Q 157.8 8.4 151.65 5.6 A 29.925 29.925 0 0 0 145.758 3.637 A 36.42 36.42 0 0 0 137.8 2.8 A 39.35 39.35 0 0 0 131.572 3.276 A 29.661 29.661 0 0 0 120.1 7.55 Q 112.7 12.3 108.75 20.45 A 37.989 37.989 0 0 0 105.915 28.563 A 46.182 46.182 0 0 0 104.8 38.9 A 48.913 48.913 0 0 0 104.835 40.761 A 42.769 42.769 0 0 0 107.05 53 A 39.376 39.376 0 0 0 107.489 54.223 A 34.353 34.353 0 0 0 113.55 64.55 Q 117.8 69.5 123.9 72.35 A 29.142 29.142 0 0 0 130.208 74.442 Z M 137.8 67 A 26.517 26.517 0 0 0 143.748 66.366 A 19.316 19.316 0 0 0 150.7 63.3 A 22.47 22.47 0 0 0 158.025 54.429 A 27.252 27.252 0 0 0 158.55 53.25 A 34.108 34.108 0 0 0 160.872 44.321 A 43.503 43.503 0 0 0 161.2 38.9 Q 161.2 33.5 159.6 28.5 A 29.735 29.735 0 0 0 155.46 20.174 A 28.121 28.121 0 0 0 155 19.55 Q 152 15.6 147.65 13.3 A 19.921 19.921 0 0 0 140.233 11.118 A 24.578 24.578 0 0 0 137.8 11 A 24.086 24.086 0 0 0 131.308 11.84 A 19.545 19.545 0 0 0 125.25 14.7 A 23.148 23.148 0 0 0 117.649 23.827 A 27.785 27.785 0 0 0 117.25 24.7 A 32.793 32.793 0 0 0 114.796 33.888 A 41.257 41.257 0 0 0 114.5 38.9 Q 114.5 44.3 116.05 49.35 A 29.379 29.379 0 0 0 120.231 57.896 A 27.923 27.923 0 0 0 120.6 58.4 Q 123.6 62.4 127.95 64.7 A 19.921 19.921 0 0 0 135.367 66.882 A 24.578 24.578 0 0 0 137.8 67 Z" id="2" vector-effect="non-scaling-stroke"/>
    <path d="M 193.9 74 L 184.9 74 L 184.9 4 L 197.5 4 L 228.4 62.2 L 228.4 4 L 237.4 4 L 237.4 74 L 225 74 L 193.9 16.2 L 193.9 74 Z" id="3" vector-effect="non-scaling-stroke"/>
    <path d="M 294.9 74 L 285.4 74 L 285.4 4 L 326.9 4 L 326.9 12.2 L 294.9 12.2 L 294.9 33.6 L 321.6 33.6 L 321.6 41.4 L 294.9 41.4 L 294.9 74 Z" id="5" vector-effect="non-scaling-stroke"/>
    <path d="M 344.4 74 L 335.4 74 L 335.4 22 L 344.4 22 L 344.4 74 Z M 335.537 11.288 A 5.973 5.973 0 0 0 339.9 13.1 A 8.175 8.175 0 0 0 341.396 12.969 A 5.647 5.647 0 0 0 344.5 11.35 Q 346.2 9.6 346.2 6.8 A 7.26 7.26 0 0 0 346.2 6.719 A 6.06 6.06 0 0 0 344.35 2.35 A 7.395 7.395 0 0 0 344.292 2.293 A 6.059 6.059 0 0 0 339.9 0.5 A 8.264 8.264 0 0 0 338.244 0.658 A 5.661 5.661 0 0 0 335.3 2.2 A 5.588 5.588 0 0 0 333.829 4.832 A 7.987 7.987 0 0 0 333.6 6.8 A 5.992 5.992 0 0 0 334.092 9.219 A 6.643 6.643 0 0 0 335.45 11.2 A 7.466 7.466 0 0 0 335.537 11.288 Z" id="6" vector-effect="non-scaling-stroke"/>
    <path d="M 359.9 57.7 L 359.9 0 L 368.9 0 L 368.9 56.8 A 20.644 20.644 0 0 0 369.088 59.688 Q 369.55 62.952 371.15 64.8 A 7.363 7.363 0 0 0 375.734 67.276 A 10.724 10.724 0 0 0 377.4 67.4 Q 379.3 67.4 381.15 66.95 A 22.192 22.192 0 0 0 382.613 66.544 Q 383.548 66.247 384.3 65.9 L 386.5 73.2 Q 385.101 73.822 383.188 74.323 A 34.978 34.978 0 0 1 382.05 74.6 A 23.816 23.816 0 0 1 378.895 75.085 A 30.514 30.514 0 0 1 376.2 75.2 A 20.862 20.862 0 0 1 371.31 74.646 A 17.544 17.544 0 0 1 367.9 73.45 A 12.683 12.683 0 0 1 362.575 68.685 A 15.856 15.856 0 0 1 362.05 67.8 Q 360.316 64.654 359.98 60.012 A 32.105 32.105 0 0 1 359.9 57.7 Z" id="7" vector-effect="non-scaling-stroke"/>
    <path d="M 435.6 51.7 L 399.2 51.7 A 24.088 24.088 0 0 0 400.339 56.725 Q 401.675 60.538 404.3 63.1 Q 408.5 67.2 415.4 67.2 Q 419.9 67.2 423.5 66.25 Q 427.1 65.3 430.4 63.8 L 432.5 71.5 A 40.77 40.77 0 0 1 428.165 73.126 A 51.863 51.863 0 0 1 424.4 74.15 A 38.914 38.914 0 0 1 419.308 74.969 A 52.025 52.025 0 0 1 414.3 75.2 A 28.318 28.318 0 0 1 406.554 74.195 A 21.108 21.108 0 0 1 396.55 68.05 A 23.521 23.521 0 0 1 391.345 58.51 Q 390 53.845 390 48 A 35.359 35.359 0 0 1 390.833 40.178 A 28.84 28.84 0 0 1 392.95 34.05 A 24.642 24.642 0 0 1 397.966 26.968 A 22.887 22.887 0 0 1 401.2 24.35 A 21.048 21.048 0 0 1 411.459 20.878 A 26.205 26.205 0 0 1 413.5 20.8 Q 421 20.8 425.95 24.05 Q 430.9 27.3 433.4 32.8 A 28.185 28.185 0 0 1 435.826 42.664 A 33.434 33.434 0 0 1 435.9 44.9 A 75.204 75.204 0 0 1 435.609 51.597 A 69.426 69.426 0 0 1 435.6 51.7 Z M 399.1 44.4 L 427.6 44.4 A 24.355 24.355 0 0 0 427.196 39.815 Q 426.7 37.231 425.596 35.207 A 12.422 12.422 0 0 0 423.8 32.7 A 12.488 12.488 0 0 0 416.839 28.924 A 18.395 18.395 0 0 0 413.3 28.6 A 13.58 13.58 0 0 0 408.188 29.535 A 12.524 12.524 0 0 0 403.7 32.65 Q 399.9 36.7 399.1 44.4 Z" id="8" vector-effect="non-scaling-stroke"/>
    <path fill="#ffa11b" stroke="#ffa11b" d="M 488.4 74 L 478.9 74 L 478.9 4 L 520.4 4 L 520.4 12.2 L 488.4 12.2 L 488.4 33.6 L 515.1 33.6 L 515.1 41.4 L 488.4 41.4 L 488.4 74 Z" id="10" vector-effect="non-scaling-stroke"/>
    <path fill="#ffa11b" stroke="#ffa11b" d="M 535 71.75 A 24.559 24.559 0 0 0 539.598 73.84 Q 543.653 75.2 548.3 75.2 Q 555.7 75.2 561.55 71.8 Q 567.4 68.4 570.8 62.25 A 26.255 26.255 0 0 0 573.453 55.109 A 34.184 34.184 0 0 0 574.2 47.8 A 34.542 34.542 0 0 0 573.715 41.891 A 25.795 25.795 0 0 0 570.75 33.45 Q 567.3 27.4 561.45 24.1 A 24.848 24.848 0 0 0 556.809 22.073 A 27.738 27.738 0 0 0 548.3 20.8 A 31.325 31.325 0 0 0 546.72 20.839 A 26.169 26.169 0 0 0 535.1 24.1 Q 529.2 27.4 525.8 33.5 A 26.023 26.023 0 0 0 523.051 41.09 A 35.006 35.006 0 0 0 522.4 48 A 34.82 34.82 0 0 0 522.665 52.354 A 27.451 27.451 0 0 0 525.75 62.15 Q 529.1 68.3 535 71.75 Z M 548.3 67.2 Q 556.2 67.2 560.6 61.85 A 18.802 18.802 0 0 0 564.419 53.76 A 27.105 27.105 0 0 0 565 48 Q 565 42.8 562.8 38.45 A 19.198 19.198 0 0 0 558.628 32.881 A 18.17 18.17 0 0 0 556.85 31.45 Q 553.1 28.8 548.3 28.8 A 19.249 19.249 0 0 0 543.074 29.472 A 14.037 14.037 0 0 0 536 34 A 17.878 17.878 0 0 0 532.326 41.374 Q 531.6 44.306 531.6 47.8 Q 531.6 53 533.8 57.45 A 19.437 19.437 0 0 0 537.33 62.49 A 17.627 17.627 0 0 0 539.75 64.55 Q 543.5 67.2 548.3 67.2 Z" id="11" vector-effect="non-scaling-stroke"/>
    <path fill="#ffa11b" stroke="#ffa11b" d="M 595.2 74 L 586.2 74 L 586.2 22 L 594.9 22 L 594.9 33.3 Q 596.2 30 598.4 27.15 Q 600.6 24.3 603.9 22.55 A 14.817 14.817 0 0 1 608.58 21.026 A 19.459 19.459 0 0 1 611.6 20.8 Q 613.1 20.8 614.6 20.95 A 18.972 18.972 0 0 1 615.655 21.084 Q 616.155 21.162 616.582 21.262 A 8.817 8.817 0 0 1 617.1 21.4 L 614.4 30.7 A 9.763 9.763 0 0 0 612.255 30.088 Q 611.159 29.9 609.9 29.9 A 12.958 12.958 0 0 0 603.27 31.746 A 15.609 15.609 0 0 0 602.85 32 Q 599.522 34.086 597.378 38.442 A 22.927 22.927 0 0 0 597.35 38.5 Q 595.587 42.107 595.27 47.328 A 39.09 39.09 0 0 0 595.2 49.7 L 595.2 74 Z" id="12" vector-effect="non-scaling-stroke"/>
    <path fill="#ffa11b" stroke="#ffa11b" d="M 635.1 74 L 626.1 74 L 626.1 22 L 634.8 22 L 634.8 30.7 Q 637.6 26.5 641.9 23.65 A 17.205 17.205 0 0 1 651.102 20.809 A 20.858 20.858 0 0 1 651.7 20.8 A 20.994 20.994 0 0 1 656.117 21.24 Q 659.103 21.882 661.385 23.463 A 13.128 13.128 0 0 1 661.85 23.8 A 15.751 15.751 0 0 1 667.298 31.489 A 19.154 19.154 0 0 1 667.4 31.8 Q 670.5 27.2 674.75 24 A 15.669 15.669 0 0 1 681.541 21.116 A 21.446 21.446 0 0 1 685.3 20.8 A 21.437 21.437 0 0 1 690.188 21.322 Q 693.774 22.162 696.263 24.351 A 12.994 12.994 0 0 1 697.95 26.15 A 18.992 18.992 0 0 1 701.361 33.422 Q 702.1 36.472 702.1 40.1 L 702.1 74 L 693.1 74 L 693.1 40.8 A 19.042 19.042 0 0 0 692.763 37.111 Q 692.327 34.905 691.328 33.161 A 10.982 10.982 0 0 0 690.6 32.05 A 7.974 7.974 0 0 0 684.787 28.754 A 10.678 10.678 0 0 0 683.7 28.7 A 11.926 11.926 0 0 0 676.941 30.827 A 15.996 15.996 0 0 0 675.35 32.05 Q 671.5 35.4 668.6 39.9 L 668.6 74 L 659.6 74 L 659.6 40.8 A 19.042 19.042 0 0 0 659.263 37.111 Q 658.827 34.905 657.828 33.161 A 10.982 10.982 0 0 0 657.1 32.05 A 7.974 7.974 0 0 0 651.287 28.754 A 10.678 10.678 0 0 0 650.2 28.7 A 12.02 12.02 0 0 0 643.881 30.528 A 16.244 16.244 0 0 0 641.9 31.95 Q 638 35.2 635.1 39.6 L 635.1 74 Z" id="13" vector-effect="non-scaling-stroke"/>
    <path fill="#ffa11b" stroke="#ffa11b" d="M 753.2 26.2 L 753.2 22 L 761.4 22 L 761.4 61.4 A 12.15 12.15 0 0 0 761.502 63.036 Q 761.834 65.47 763.25 66.35 Q 765.1 67.5 767.3 67.5 L 765.4 74.5 A 17.722 17.722 0 0 1 761.135 74.028 Q 755.498 72.628 753.903 67.08 A 13.59 13.59 0 0 1 753.8 66.7 A 21.307 21.307 0 0 1 750.69 70.126 A 28.498 28.498 0 0 1 747.55 72.55 Q 743.6 75.2 737.5 75.2 Q 731 75.2 725.7 71.9 A 22.947 22.947 0 0 1 718.287 64.373 A 27.923 27.923 0 0 1 717.25 62.55 A 27.228 27.228 0 0 1 714.62 54.608 A 36.644 36.644 0 0 1 714.1 48.3 A 33.142 33.142 0 0 1 715.097 40.031 A 27.968 27.968 0 0 1 717.25 34.3 Q 720.4 28.1 725.95 24.45 A 22.297 22.297 0 0 1 737.145 20.844 A 27.388 27.388 0 0 1 738.7 20.8 A 22.584 22.584 0 0 1 743.494 21.29 A 18.703 18.703 0 0 1 746.85 22.35 A 26.002 26.002 0 0 1 751.137 24.644 A 22.103 22.103 0 0 1 753.2 26.2 Z M 752.4 60.7 L 752.4 32.8 Q 749.7 30.9 746.45 29.75 Q 743.2 28.6 739.6 28.6 A 15.924 15.924 0 0 0 734.629 29.354 A 14.024 14.024 0 0 0 731.15 31.05 A 16.301 16.301 0 0 0 726.131 36.474 A 19.962 19.962 0 0 0 725.4 37.85 A 20.663 20.663 0 0 0 723.647 43.527 A 27.678 27.678 0 0 0 723.3 48 Q 723.3 53.6 725.4 57.95 A 17.602 17.602 0 0 0 728.506 62.496 A 15.697 15.697 0 0 0 731.2 64.75 Q 734.9 67.2 739.5 67.2 Q 743.3 67.2 746.7 65.35 Q 750.1 63.5 752.4 60.7 Z" id="14" vector-effect="non-scaling-stroke"/>
    <path fill="#ffa11b" stroke="#ffa11b" d="M 781.3 56.1 L 781.3 31.7 L 772.3 31.7 L 772.3 23.9 L 781.5 23.9 L 783.4 7.5 L 790.3 7.5 L 790.3 23.9 L 804.7 23.9 L 804.7 31.7 L 790.3 31.7 L 790.3 56.8 A 21.559 21.559 0 0 0 790.468 59.596 Q 790.941 63.202 792.75 64.9 Q 795.2 67.2 798.6 67.2 Q 801.1 67.2 803.35 66.4 Q 805.6 65.6 807.5 64.5 L 810 71.7 A 18.546 18.546 0 0 1 808.382 72.556 Q 807.58 72.935 806.634 73.308 A 43.365 43.365 0 0 1 804.6 74.05 Q 801.2 75.2 797.5 75.2 Q 790 75.2 785.65 70.25 A 16.116 16.116 0 0 1 782.422 64.348 Q 781.659 61.917 781.415 58.98 A 34.777 34.777 0 0 1 781.3 56.1 Z" id="15" vector-effect="non-scaling-stroke"/>
  </g>
</svg>
